# xmcd
#
# Track frame offsets:
#	150
#	19222
#	31957
#	55225
#	75362
#	93482
#	109360
#	130227
#	152107
#	180880
#	198427
#	211452
#	225692
#	239752
#	254317
#	273992
#
# Disc length: 3925 seconds
#
# Revision: 10
# Processed by: cddbd v1.5.2PL0 Copyright (c) Steve Scherf et al.
# Submitted via: EasyCDDAExtractor 15.3.0.1
#
DISCID=d80f5310
DTITLE=Alejandra Guzman - La Guzman
DYEAR=1997
DGENRE=Latin
TTITLE0=Mala Hierba
TTITLE1=Eternamente Bella
TTITLE2=Angeles Caidos
TTITLE3=Loca
TTITLE4=Mirala, Miralo
TTITLE5=Guante De Seda
TTITLE6=Hacer El Amor Con Otro
TTITLE7=Despertar
TTITLE8=Set Acustico (Rosas Rojas, Llama Por Favor, Cuidado Con El Corazon)
TTITLE9=Te Esperaba
TTITLE10=Dime Adios
TTITLE11=No Hay Vacuna Contra El Amor
TTITLE12=Reina De Corazones
TTITLE13=Corazones Rotos
TTITLE14=Mentiras
TTITLE15=Güera
EXTD=YEAR: 1997
EXTT0=
EXTT1=
EXTT2=
EXTT3=
EXTT4=
EXTT5=
EXTT6=
EXTT7=
EXTT8=
EXTT9=
EXTT10=
EXTT11=
EXTT12=
EXTT13=
EXTT14=
EXTT15=
PLAYORDER=
